# xmcd
#
# Track frame offsets: 
#        183
#        20800
#        35160
#        53573
#        67605
#        82883
#        98238
#        111688
#        129848
#        139090
#
# Disc length: 2254 seconds
#
# Revision: 4
# Processed by: cddbd v1.5.2PL0 Copyright (c) Steve Scherf et al.
# Submitted via: ExactAudioCopy v1.3
#
DISCID=8208cc0a
DTITLE=Neil Young - Harvest
DYEAR=1972
DGENRE=Folk Rock
TTITLE0=Out On The Weekend (With The Stray Gators)
TTITLE1=Harvest (With The Stray Gators)
TTITLE2=A Man Needs A Maid (With The London Symphony Orchestra)
TTITLE3=Heart Of Gold (With The Stray Gators)
TTITLE4=Are You Ready For The Country (With The Stray Gators)
TTITLE5=Old Man (With The Stray Gators)
TTITLE6=There's A World (With The London Symphony Orchestra)
TTITLE7=Alabama (With The Stray Gators)
TTITLE8=The Needle And The Damage Done (Live At Royce Hall - UCLA)
TTITLE9=Words (Between The Lines Of Age) (With The Stray Gators)
EXTD=
EXTT0=
EXTT1=
EXTT2=
EXTT3=
EXTT4=
EXTT5=
EXTT6=
EXTT7=
EXTT8=
EXTT9=
PLAYORDER=
